<svg version="1.1" id="Layer_1" xmlns="http://www.w3.org/2000/svg" xmlns:xlink="http://www.w3.org/1999/xlink" x="0px" y="0px"
	 width="100%" viewBox="0 0 1153 127" enable-background="new 0 0 1153 127" xml:space="preserve">
<path fill="#000000" opacity="1.000000" stroke="none" 
	d="
M1103.000000,128.000000 
	C735.333313,128.000000 368.166656,128.000000 1.000000,128.000000 
	C1.000000,85.666664 1.000000,43.333332 1.000000,1.000000 
	C385.333344,1.000000 769.666687,1.000000 1154.000000,1.000000 
	C1154.000000,43.333332 1154.000000,85.666664 1154.000000,128.000000 
	C1137.166626,128.000000 1120.333374,128.000000 1103.000000,128.000000 
M182.013748,92.013489 
	C182.013748,92.013489 182.060638,92.094490 182.733536,91.809677 
	C184.153946,88.311523 186.131577,84.926857 186.872269,81.290260 
	C188.187775,74.831352 185.462357,68.921158 180.791275,66.246300 
	C177.189041,64.007225 173.586807,61.768150 170.131989,59.620712 
	C170.102417,59.637356 170.879623,59.120659 171.718552,58.740086 
	C180.987732,54.535152 184.218567,45.009830 179.462936,35.933723 
	C175.920609,29.173162 169.580414,27.229113 162.790878,27.094936 
	C147.474319,26.792252 132.147644,26.992767 116.825127,27.013247 
	C115.569946,27.014923 114.315018,27.204643 113.338959,27.284237 
	C113.338959,51.430435 113.338959,75.158379 113.338959,99.000221 
	C130.489746,99.000221 147.306290,99.179832 164.113739,98.868614 
	C168.105591,98.794701 172.066986,97.076714 176.748474,96.005898 
	C178.530563,94.690727 180.312653,93.375557 182.013748,92.013489 
M875.809509,51.695522 
	C875.576477,49.781803 875.343445,47.868084 875.007996,45.131439 
	C874.790833,43.695950 874.723511,42.218208 874.332581,40.831726 
	C871.452393,30.618217 862.513733,27.844120 854.101013,27.316244 
	C837.242371,26.258408 820.270691,27.002094 803.194336,27.002094 
	C803.194336,51.164654 803.194336,74.882790 803.194336,98.800430 
	C806.120422,98.800430 808.854065,98.800430 812.153015,98.800430 
	C812.153015,89.444450 812.153015,80.246407 812.153015,71.000267 
	C825.530884,71.000267 838.362549,71.392075 851.149048,70.802452 
	C856.085083,70.574829 861.369324,68.902344 865.656860,66.433006 
	C869.127319,64.434235 871.342041,60.255035 874.706482,56.819962 
	C874.748779,56.213249 874.791077,55.606537 874.988037,54.270664 
	C875.030090,53.527859 875.072144,52.785057 875.809509,51.695522 
M254.963211,51.383026 
	C256.733154,46.625687 258.503082,41.868347 260.602478,36.225471 
	C269.032867,57.720531 277.133575,78.374992 285.180695,98.892815 
	C289.303650,98.892815 292.954193,98.892815 296.824127,98.892815 
	C306.500854,75.010742 316.171143,51.144581 326.099060,26.642593 
	C322.254608,28.164043 317.747284,24.437996 315.611267,29.824099 
	C310.769623,42.032536 305.877502,54.220959 301.003479,66.416550 
	C297.835022,74.344429 294.662262,82.270584 291.195038,90.938492 
	C290.210541,89.265038 289.623749,88.520584 289.297302,87.675560 
	C281.852203,68.405495 274.300446,49.174236 267.156097,29.792900 
	C266.057648,26.813013 264.424347,26.773729 262.371918,27.066809 
	C259.590576,27.463968 255.860870,25.195196 254.260574,29.350470 
	C251.730698,35.919559 249.490646,42.600464 246.949448,49.164963 
	C241.576050,63.045723 236.087311,76.881836 230.386642,91.396301 
	C222.775116,72.297676 215.266403,53.786961 208.035950,35.168186 
	C204.677322,26.519583 204.922501,26.424368 195.617462,27.399059 
	C205.324509,51.348797 214.969574,75.145599 224.638000,99.000031 
	C227.584549,99.000031 230.453583,99.286667 233.221588,98.882103 
	C234.658920,98.672035 236.654205,97.536057 237.144913,96.315002 
	C243.056564,81.604469 248.733765,66.799728 254.963211,51.383026 
M75.968628,81.637100 
	C78.659409,85.277206 81.774551,88.683502 83.939674,92.613220 
	C87.046211,98.251595 91.253281,100.485435 98.328194,98.382607 
	C90.521362,88.077843 82.754189,77.825417 74.930992,67.499062 
	C76.635262,66.918846 77.972733,66.459969 79.312515,66.007957 
	C89.389114,62.608303 93.450684,55.761303 91.893463,43.143604 
	C90.943626,35.447384 85.779457,28.852680 76.359299,28.301754 
	C58.740116,27.271315 41.017727,28.005428 23.230919,28.005428 
	C23.230919,51.203285 23.230919,74.942596 23.230919,98.769501 
	C26.201633,98.769501 28.938150,98.769501 32.069527,98.769501 
	C32.069527,88.468330 32.069527,78.389870 32.069527,68.000389 
	C42.263489,68.000389 52.060379,68.055000 61.855919,67.964127 
	C64.486244,67.939720 66.239250,68.352333 67.771446,71.036896 
	C69.842789,74.666100 72.906395,77.728981 75.968628,81.637100 
M948.394409,99.000206 
	C967.265808,95.998451 981.208435,82.123039 980.208069,60.430035 
	C979.479004,44.621574 969.929565,32.902874 956.196533,27.930134 
	C946.504761,24.420738 936.533997,24.918013 926.573669,25.039089 
	C917.012024,25.155317 908.197998,28.081238 900.257080,33.343632 
	C893.716614,37.677948 891.958069,44.856041 889.503235,51.763828 
	C887.094543,58.541981 885.939148,65.246490 887.725525,72.193222 
	C891.433960,86.613800 901.000488,94.728119 915.352356,98.143539 
	C926.095581,100.700180 936.736877,100.569527 948.394409,99.000206 
M550.449219,55.002834 
	C547.040344,53.675938 543.257019,52.888748 540.334351,50.861034 
	C537.731506,49.055199 534.632141,46.024872 534.349426,43.268517 
	C533.921814,39.099991 537.383240,35.683346 541.387085,34.328026 
	C551.715637,30.831732 562.389587,30.426710 573.037720,32.580383 
	C578.612793,33.707981 584.030273,35.614605 589.588806,37.189186 
	C590.512573,26.026867 590.468567,28.477184 582.564880,27.222816 
	C572.563354,25.635515 562.308655,25.231367 552.156128,25.144814 
	C544.731262,25.081512 537.708313,26.928772 531.367676,31.734737 
	C524.528748,36.918335 523.857056,49.815258 531.889648,55.070469 
	C539.344360,59.947659 547.745972,61.732140 556.074280,64.072243 
	C564.366394,66.402168 572.593140,69.053192 580.651917,72.085808 
	C584.401306,73.496727 587.044495,76.566689 587.007507,81.113029 
	C586.970032,85.717720 583.974365,88.059761 580.341064,89.890106 
	C579.352661,90.388062 578.263977,90.731468 577.184753,90.997353 
	C569.336609,92.930763 561.608154,94.176834 553.284241,93.273399 
	C544.956360,92.369530 536.991394,91.236641 529.548218,87.269150 
	C528.676514,86.804489 527.391296,87.115479 526.305298,87.067230 
	C525.828247,96.472046 524.845215,95.302513 533.046997,97.025444 
	C536.511658,97.753258 539.957397,98.676979 543.461487,99.092606 
	C556.851929,100.680885 570.339294,101.549179 583.253784,96.805420 
	C593.199219,93.152245 599.093628,83.302269 593.715088,73.224182 
	C590.981262,68.101814 586.335327,65.651581 581.193665,64.031052 
	C571.264160,60.901512 561.256226,58.020977 550.449219,55.002834 
M668.512695,96.045250 
	C673.637146,93.518585 678.761536,90.991920 684.274841,88.273521 
	C684.274841,92.009865 684.274841,95.439583 684.274841,98.691498 
	C687.022461,98.691498 689.427002,98.691498 691.719727,98.691498 
	C691.719727,74.651237 691.719727,50.920578 691.719727,27.284004 
	C689.023560,27.284004 686.620056,27.284004 684.000000,27.284004 
	C684.000000,43.363319 684.087219,59.160618 683.891602,74.954407 
	C683.866638,76.970848 682.949646,79.798599 681.459045,80.846107 
	C667.968079,90.326683 653.368042,96.467651 636.362183,93.967072 
	C629.967529,93.026802 623.968323,88.035622 623.069275,82.774170 
	C622.439819,79.090302 622.074951,75.318344 622.046448,71.582260 
	C621.933655,56.815617 622.000122,42.047604 622.000122,27.237961 
	C619.110291,27.237961 616.706909,27.237961 614.000366,27.237961 
	C614.000366,43.760151 613.796448,60.049232 614.059082,76.330795 
	C614.309814,91.876183 623.725708,99.971313 638.738403,100.977898 
	C648.768433,101.650391 658.609436,100.768761 668.512695,96.045250 
M723.000000,77.573624 
	C723.000000,75.469215 723.000000,73.364799 723.000000,71.000114 
	C729.154419,71.000114 734.792480,71.115311 740.424133,70.974380 
	C749.994080,70.734886 759.589355,70.689873 769.119507,69.903313 
	C779.104919,69.079147 786.822571,61.354023 787.174683,49.544559 
	C787.575073,36.114109 778.440857,28.665348 769.203064,28.130983 
	C754.833862,27.299788 740.415100,27.316769 726.016479,27.011301 
	C722.414673,26.934889 718.809753,26.999876 715.263245,26.999876 
	C715.263245,51.298435 715.263245,75.034340 715.263245,98.734406 
	C717.939270,98.734406 720.344421,98.734406 723.000000,98.734406 
	C723.000000,91.834770 723.000000,85.197525 723.000000,77.573624 
M1094.995850,97.258743 
	C1094.995850,75.877319 1094.995850,54.495899 1094.995850,32.758064 
	C1106.416260,32.758064 1117.163208,32.758064 1128.070312,32.758064 
	C1127.957764,30.642937 1127.865112,28.901915 1127.777710,27.260059 
	C1102.982788,27.260059 1078.594116,27.260059 1054.259766,27.260059 
	C1054.259766,29.261690 1054.259766,30.998756 1054.259766,33.113354 
	C1065.247437,33.113354 1075.981201,33.113354 1087.064453,33.113354 
	C1087.064453,55.214985 1087.064453,76.934265 1087.064453,99.308952 
	C1089.969482,98.905907 1092.459229,98.560471 1094.995850,97.258743 
M442.318604,98.936218 
	C442.545746,97.352371 442.966705,95.768990 442.970520,94.184608 
	C443.016235,75.216309 442.995026,56.247864 443.010010,37.279469 
	C443.011139,35.864155 443.155151,34.448956 443.251221,32.696579 
	C454.465759,32.696579 465.203033,32.696579 475.850647,32.696579 
	C475.850647,30.700129 475.850647,29.073114 475.850647,27.285133 
	C451.182526,27.285133 426.663910,27.285133 401.952576,27.285133 
	C402.046082,29.324602 402.125763,31.062843 402.222198,33.166992 
	C413.310669,33.166992 424.042908,33.166992 435.120728,33.166992 
	C435.120728,55.275032 435.120728,76.996223 435.120728,98.995468 
	C437.438965,98.995468 439.402649,98.995468 442.318604,98.936218 
M1035.773682,24.999966 
	C1024.259033,25.908979 1015.115112,32.072910 1005.713379,39.325375 
	C1005.713379,34.645187 1005.713379,30.881218 1005.713379,27.318932 
	C1002.958191,27.318932 1000.555115,27.318932 998.310059,27.318932 
	C998.310059,51.385715 998.310059,75.132362 998.310059,98.679550 
	C1001.040771,98.679550 1003.446167,98.679550 1006.000000,98.679550 
	C1006.000000,83.208183 1005.967773,68.056725 1006.049377,52.905872 
	C1006.057617,51.376740 1006.286316,49.441177 1007.207275,48.391129 
	C1012.967041,41.824162 1019.715149,36.803429 1028.180176,33.827801 
	C1036.384521,30.943844 1044.413330,30.921112 1052.801270,33.144081 
	C1052.801270,30.218845 1052.801270,27.794340 1052.801270,24.999939 
	C1047.313843,24.999939 1042.016602,24.999939 1035.773682,24.999966 
M381.000610,68.500000 
	C381.000610,78.605072 381.000610,88.710136 381.000610,98.714279 
	C383.975098,98.714279 386.382141,98.714279 388.720703,98.714279 
	C388.720703,74.682175 388.720703,50.937088 388.720703,27.285801 
	C386.026306,27.285801 383.619263,27.285801 381.000610,27.285801 
	C381.000610,40.880394 381.000610,54.190197 381.000610,68.500000 
z"/>
<path fill="#FFFFFF" opacity="1.000000" stroke="none" 
	d="
M254.717651,51.701286 
	C248.733765,66.799728 243.056564,81.604469 237.144913,96.315002 
	C236.654205,97.536057 234.658920,98.672035 233.221588,98.882103 
	C230.453583,99.286667 227.584549,99.000031 224.638000,99.000031 
	C214.969574,75.145599 205.324509,51.348797 195.617462,27.399059 
	C204.922501,26.424368 204.677322,26.519583 208.035950,35.168186 
	C215.266403,53.786961 222.775116,72.297676 230.386642,91.396301 
	C236.087311,76.881836 241.576050,63.045723 246.949448,49.164963 
	C249.490646,42.600464 251.730698,35.919559 254.260574,29.350470 
	C255.860870,25.195196 259.590576,27.463968 262.371918,27.066809 
	C264.424347,26.773729 266.057648,26.813013 267.156097,29.792900 
	C274.300446,49.174236 281.852203,68.405495 289.297302,87.675560 
	C289.623749,88.520584 290.210541,89.265038 291.195038,90.938492 
	C294.662262,82.270584 297.835022,74.344429 301.003479,66.416550 
	C305.877502,54.220959 310.769623,42.032536 315.611267,29.824099 
	C317.747284,24.437996 322.254608,28.164043 326.099060,26.642593 
	C316.171143,51.144581 306.500854,75.010742 296.824127,98.892815 
	C292.954193,98.892815 289.303650,98.892815 285.180695,98.892815 
	C277.133575,78.374992 269.032867,57.720531 260.602478,36.225471 
	C258.503082,41.868347 256.733154,46.625687 254.717651,51.701286 
z"/>
<path fill="#FFFFFF" opacity="1.000000" stroke="none" 
	d="
M176.042389,96.114960 
	C172.066986,97.076714 168.105591,98.794701 164.113739,98.868614 
	C147.306290,99.179832 130.489746,99.000221 113.338959,99.000221 
	C113.338959,75.158379 113.338959,51.430435 113.338959,27.284237 
	C114.315018,27.204643 115.569946,27.014923 116.825127,27.013247 
	C132.147644,26.992767 147.474319,26.792252 162.790878,27.094936 
	C169.580414,27.229113 175.920609,29.173162 179.462936,35.933723 
	C184.218567,45.009830 180.987732,54.535152 171.718552,58.740086 
	C170.879623,59.120659 170.102417,59.637356 170.131989,59.620712 
	C173.586807,61.768150 177.189041,64.007225 180.939056,66.932564 
	C183.461395,71.582352 185.133789,75.642921 184.043686,80.474144 
	C183.180008,84.301872 182.707077,88.217751 182.060638,92.094490 
	C182.060638,92.094490 182.013748,92.013489 181.675171,92.024406 
	C179.571869,93.395203 177.807129,94.755081 176.042389,96.114960 
M137.503159,92.999695 
	C146.898254,92.666206 156.297470,92.418159 165.686905,91.966858 
	C171.229019,91.700470 177.265305,86.911880 177.992996,82.543983 
	C179.152069,75.586746 176.705322,69.139503 171.367233,67.275299 
	C167.327713,65.864594 162.889679,65.086273 158.605606,64.981415 
	C146.464935,64.684250 134.312271,64.877319 122.297028,64.877319 
	C122.297028,74.027405 122.297028,83.419121 122.297028,92.999687 
	C127.230103,92.999687 131.867386,92.999687 137.503159,92.999695 
M143.484848,33.000320 
	C136.401932,33.000320 129.319016,33.000320 122.252869,33.000320 
	C122.252869,41.605011 122.252869,49.661469 122.252869,57.999382 
	C132.778366,57.999382 143.065704,58.308434 153.320496,57.864899 
	C158.216461,57.653137 163.104370,56.217457 167.897949,54.962070 
	C172.876953,53.658123 173.771301,49.272999 173.898453,45.055035 
	C174.021683,40.966827 172.344849,36.953823 168.012466,36.130409 
	C160.249557,34.654984 152.330933,33.998871 143.484848,33.000320 
z"/>
<path fill="#FFFFFF" opacity="1.000000" stroke="none" 
	d="
M75.756447,81.335968 
	C72.906395,77.728981 69.842789,74.666100 67.771446,71.036896 
	C66.239250,68.352333 64.486244,67.939720 61.855919,67.964127 
	C52.060379,68.055000 42.263489,68.000389 32.069527,68.000389 
	C32.069527,78.389870 32.069527,88.468330 32.069527,98.769501 
	C28.938150,98.769501 26.201633,98.769501 23.230919,98.769501 
	C23.230919,74.942596 23.230919,51.203285 23.230919,28.005428 
	C41.017727,28.005428 58.740116,27.271315 76.359299,28.301754 
	C85.779457,28.852680 90.943626,35.447384 91.893463,43.143604 
	C93.450684,55.761303 89.389114,62.608303 79.312515,66.007957 
	C77.972733,66.459969 76.635262,66.918846 74.930992,67.499062 
	C82.754189,77.825417 90.521362,88.077843 98.328194,98.382607 
	C91.253281,100.485435 87.046211,98.251595 83.939674,92.613220 
	C81.774551,88.683502 78.659409,85.277206 75.756447,81.335968 
M31.998898,52.466728 
	C31.998898,55.572521 31.998898,58.678318 31.998898,62.851990 
	C46.208660,61.874516 59.826832,61.203785 73.383179,59.893414 
	C80.201904,59.234306 83.908607,56.161552 83.832985,47.287239 
	C83.770164,39.915546 81.674339,37.074783 73.420792,35.122223 
	C69.180336,34.119049 64.659294,34.239944 60.257137,33.994984 
	C50.927437,33.475830 41.592552,33.049850 31.998898,32.572685 
	C31.998898,39.532967 31.998898,45.505257 31.998898,52.466728 
z"/>
<path fill="#FFFFFF" opacity="1.000000" stroke="none" 
	d="
M947.948120,99.002182 
	C936.736877,100.569527 926.095581,100.700180 915.352356,98.143539 
	C901.000488,94.728119 891.433960,86.613800 887.725525,72.193222 
	C885.939148,65.246490 887.094543,58.541981 889.503235,51.763828 
	C891.958069,44.856041 893.716614,37.677948 900.257080,33.343632 
	C908.197998,28.081238 917.012024,25.155317 926.573669,25.039089 
	C936.533997,24.918013 946.504761,24.420738 956.196533,27.930134 
	C969.929565,32.902874 979.479004,44.621574 980.208069,60.430035 
	C981.208435,82.123039 967.265808,95.998451 947.948120,99.002182 
M901.417114,81.945747 
	C903.958313,83.965622 906.275085,86.395706 909.081299,87.931160 
	C918.890015,93.298073 929.412842,94.036079 940.467896,93.152855 
	C953.804016,92.087395 969.071289,84.433907 971.419556,68.498062 
	C973.224243,56.250496 968.678284,41.010330 956.523926,36.339237 
	C950.769226,34.127636 944.491089,33.154613 938.374207,32.035591 
	C927.136108,29.979698 916.550354,32.515049 906.883728,38.163059 
	C903.237793,40.293293 898.876160,43.522087 897.721619,47.163494 
	C894.047058,58.752483 892.910767,70.649979 901.417114,81.945747 
z"/>
<path fill="#FFFFFF" opacity="1.000000" stroke="none" 
	d="
M550.864990,55.020020 
	C561.256226,58.020977 571.264160,60.901512 581.193665,64.031052 
	C586.335327,65.651581 590.981262,68.101814 593.715088,73.224182 
	C599.093628,83.302269 593.199219,93.152245 583.253784,96.805420 
	C570.339294,101.549179 556.851929,100.680885 543.461487,99.092606 
	C539.957397,98.676979 536.511658,97.753258 533.046997,97.025444 
	C524.845215,95.302513 525.828247,96.472046 526.305298,87.067230 
	C527.391296,87.115479 528.676514,86.804489 529.548218,87.269150 
	C536.991394,91.236641 544.956360,92.369530 553.284241,93.273399 
	C561.608154,94.176834 569.336609,92.930763 577.184753,90.997353 
	C578.263977,90.731468 579.352661,90.388062 580.341064,89.890106 
	C583.974365,88.059761 586.970032,85.717720 587.007507,81.113029 
	C587.044495,76.566689 584.401306,73.496727 580.651917,72.085808 
	C572.593140,69.053192 564.366394,66.402168 556.074280,64.072243 
	C547.745972,61.732140 539.344360,59.947659 531.889648,55.070469 
	C523.857056,49.815258 524.528748,36.918335 531.367676,31.734737 
	C537.708313,26.928772 544.731262,25.081512 552.156128,25.144814 
	C562.308655,25.231367 572.563354,25.635515 582.564880,27.222816 
	C590.468567,28.477184 590.512573,26.026867 589.588806,37.189186 
	C584.030273,35.614605 578.612793,33.707981 573.037720,32.580383 
	C562.389587,30.426710 551.715637,30.831732 541.387085,34.328026 
	C537.383240,35.683346 533.921814,39.099991 534.349426,43.268517 
	C534.632141,46.024872 537.731506,49.055199 540.334351,50.861034 
	C543.257019,52.888748 547.040344,53.675938 550.864990,55.020020 
z"/>
<path fill="#FFFFFF" opacity="1.000000" stroke="none" 
	d="
M874.113770,57.042992 
	C871.342041,60.255035 869.127319,64.434235 865.656860,66.433006 
	C861.369324,68.902344 856.085083,70.574829 851.149048,70.802452 
	C838.362549,71.392075 825.530884,71.000267 812.153015,71.000267 
	C812.153015,80.246407 812.153015,89.444450 812.153015,98.800430 
	C808.854065,98.800430 806.120422,98.800430 803.194336,98.800430 
	C803.194336,74.882790 803.194336,51.164654 803.194336,27.002094 
	C820.270691,27.002094 837.242371,26.258408 854.101013,27.316244 
	C862.513733,27.844120 871.452393,30.618217 874.332581,40.831726 
	C874.723511,42.218208 874.790833,43.695950 874.736755,45.703461 
	C872.259399,48.470219 872.358948,50.405602 875.114258,52.042252 
	C875.072144,52.785057 875.030090,53.527859 874.624084,54.677315 
	C874.211365,55.736973 874.162537,56.389980 874.113770,57.042992 
M865.675903,41.145340 
	C862.938416,39.099163 860.471741,36.224937 857.394226,35.218456 
	C853.630493,33.987507 849.357788,34.077850 845.299744,34.027161 
	C834.306213,33.889847 823.309814,33.980091 812.219482,33.980091 
	C812.219482,43.875046 812.219482,54.261616 812.219482,64.000114 
	C825.618835,64.000114 838.804016,64.390373 851.955322,63.891212 
	C865.315613,63.384113 869.262390,55.338993 865.675903,41.145340 
z"/>
<path fill="#FFFFFF" opacity="1.000000" stroke="none" 
	d="
M668.222046,96.316605 
	C658.609436,100.768761 648.768433,101.650391 638.738403,100.977898 
	C623.725708,99.971313 614.309814,91.876183 614.059082,76.330795 
	C613.796448,60.049232 614.000366,43.760151 614.000366,27.237961 
	C616.706909,27.237961 619.110291,27.237961 622.000122,27.237961 
	C622.000122,42.047604 621.933655,56.815617 622.046448,71.582260 
	C622.074951,75.318344 622.439819,79.090302 623.069275,82.774170 
	C623.968323,88.035622 629.967529,93.026802 636.362183,93.967072 
	C653.368042,96.467651 667.968079,90.326683 681.459045,80.846107 
	C682.949646,79.798599 683.866638,76.970848 683.891602,74.954407 
	C684.087219,59.160618 684.000000,43.363319 684.000000,27.284004 
	C686.620056,27.284004 689.023560,27.284004 691.719727,27.284004 
	C691.719727,50.920578 691.719727,74.651237 691.719727,98.691498 
	C689.427002,98.691498 687.022461,98.691498 684.274841,98.691498 
	C684.274841,95.439583 684.274841,92.009865 684.274841,88.273521 
	C678.761536,90.991920 673.637146,93.518585 668.222046,96.316605 
z"/>
<path fill="#FFFFFF" opacity="1.000000" stroke="none" 
	d="
M723.000000,78.066956 
	C723.000000,85.197525 723.000000,91.834770 723.000000,98.734406 
	C720.344421,98.734406 717.939270,98.734406 715.263245,98.734406 
	C715.263245,75.034340 715.263245,51.298435 715.263245,26.999876 
	C718.809753,26.999876 722.414673,26.934889 726.016479,27.011301 
	C740.415100,27.316769 754.833862,27.299788 769.203064,28.130983 
	C778.440857,28.665348 787.575073,36.114109 787.174683,49.544559 
	C786.822571,61.354023 779.104919,69.079147 769.119507,69.903313 
	C759.589355,70.689873 749.994080,70.734886 740.424133,70.974380 
	C734.792480,71.115311 729.154419,71.000114 723.000000,71.000114 
	C723.000000,73.364799 723.000000,75.469215 723.000000,78.066956 
M774.627808,60.966831 
	C776.114929,60.515347 778.936584,61.064995 776.993408,57.346725 
	C777.290771,56.883739 777.588135,56.420757 778.611267,55.912407 
	C779.359070,55.163731 780.106873,54.415054 780.854614,53.666378 
	C780.196777,53.098408 779.538879,52.530441 778.991516,51.100018 
	C779.016602,40.788834 776.613464,36.476803 766.668396,35.186604 
	C752.379517,33.332855 737.881958,33.088108 723.202332,32.139008 
	C723.202332,43.790520 723.202332,54.192307 723.202332,65.497559 
	C737.927063,64.955383 752.442078,64.420921 767.416565,64.469376 
	C770.910706,65.694389 773.254700,64.814903 773.986694,60.983948 
	C773.986694,60.983948 773.905823,60.939419 774.627808,60.966831 
z"/>
<path fill="#FFFFFF" opacity="1.000000" stroke="none" 
	d="
M1094.972412,97.736885 
	C1092.459229,98.560471 1089.969482,98.905907 1087.064453,99.308952 
	C1087.064453,76.934265 1087.064453,55.214985 1087.064453,33.113354 
	C1075.981201,33.113354 1065.247437,33.113354 1054.259766,33.113354 
	C1054.259766,30.998756 1054.259766,29.261690 1054.259766,27.260059 
	C1078.594116,27.260059 1102.982788,27.260059 1127.777710,27.260059 
	C1127.865112,28.901915 1127.957764,30.642937 1128.070312,32.758064 
	C1117.163208,32.758064 1106.416260,32.758064 1094.995850,32.758064 
	C1094.995850,54.495899 1094.995850,75.877319 1094.972412,97.736885 
z"/>
<path fill="#FFFFFF" opacity="1.000000" stroke="none" 
	d="
M441.842468,98.965843 
	C439.402649,98.995468 437.438965,98.995468 435.120728,98.995468 
	C435.120728,76.996223 435.120728,55.275032 435.120728,33.166992 
	C424.042908,33.166992 413.310669,33.166992 402.222198,33.166992 
	C402.125763,31.062843 402.046082,29.324602 401.952576,27.285133 
	C426.663910,27.285133 451.182526,27.285133 475.850647,27.285133 
	C475.850647,29.073114 475.850647,30.700129 475.850647,32.696579 
	C465.203033,32.696579 454.465759,32.696579 443.251221,32.696579 
	C443.155151,34.448956 443.011139,35.864155 443.010010,37.279469 
	C442.995026,56.247864 443.016235,75.216309 442.970520,94.184608 
	C442.966705,95.768990 442.545746,97.352371 441.842468,98.965843 
z"/>
<path fill="#FFFFFF" opacity="1.000000" stroke="none" 
	d="
M1036.246582,24.999952 
	C1042.016602,24.999939 1047.313843,24.999939 1052.801270,24.999939 
	C1052.801270,27.794340 1052.801270,30.218845 1052.801270,33.144081 
	C1044.413330,30.921112 1036.384521,30.943844 1028.180176,33.827801 
	C1019.715149,36.803429 1012.967041,41.824162 1007.207275,48.391129 
	C1006.286316,49.441177 1006.057617,51.376740 1006.049377,52.905872 
	C1005.967773,68.056725 1006.000000,83.208183 1006.000000,98.679550 
	C1003.446167,98.679550 1001.040771,98.679550 998.310059,98.679550 
	C998.310059,75.132362 998.310059,51.385715 998.310059,27.318932 
	C1000.555115,27.318932 1002.958191,27.318932 1005.713379,27.318932 
	C1005.713379,30.881218 1005.713379,34.645187 1005.713379,39.325375 
	C1015.115112,32.072910 1024.259033,25.908979 1036.246582,24.999952 
z"/>
<path fill="#FFFFFF" opacity="1.000000" stroke="none" 
	d="
M381.000610,68.000000 
	C381.000610,54.190197 381.000610,40.880394 381.000610,27.285801 
	C383.619263,27.285801 386.026306,27.285801 388.720703,27.285801 
	C388.720703,50.937088 388.720703,74.682175 388.720703,98.714279 
	C386.382141,98.714279 383.975098,98.714279 381.000610,98.714279 
	C381.000610,88.710136 381.000610,78.605072 381.000610,68.000000 
z"/>
<path fill="#FFFFFF" opacity="1.000000" stroke="none" 
	d="
M182.397095,91.952087 
	C182.707077,88.217751 183.180008,84.301872 184.043686,80.474144 
	C185.133789,75.642921 183.461395,71.582352 181.064484,67.251999 
	C185.462357,68.921158 188.187775,74.831352 186.872269,81.290260 
	C186.131577,84.926857 184.153946,88.311523 182.397095,91.952087 
z"/>
<path fill="#FFFFFF" opacity="1.000000" stroke="none" 
	d="
M875.461853,51.868889 
	C872.358948,50.405602 872.259399,48.470219 874.787964,46.114925 
	C875.343445,47.868084 875.576477,49.781803 875.461853,51.868889 
z"/>
<path fill="#FFFFFF" opacity="1.000000" stroke="none" 
	d="
M176.395432,96.060425 
	C177.807129,94.755081 179.571869,93.395203 181.715668,92.047859 
	C180.312653,93.375557 178.530563,94.690727 176.395432,96.060425 
z"/>
<path fill="#FFFFFF" opacity="1.000000" stroke="none" 
	d="
M874.410156,56.931477 
	C874.162537,56.389980 874.211365,55.736973 874.546753,55.041893 
	C874.791077,55.606537 874.748779,56.213249 874.410156,56.931477 
z"/>
<path fill="#000000" opacity="1.000000" stroke="none" 
	d="
M137.003906,92.999695 
	C131.867386,92.999687 127.230103,92.999687 122.297028,92.999687 
	C122.297028,83.419121 122.297028,74.027405 122.297028,64.877319 
	C134.312271,64.877319 146.464935,64.684250 158.605606,64.981415 
	C162.889679,65.086273 167.327713,65.864594 171.367233,67.275299 
	C176.705322,69.139503 179.152069,75.586746 177.992996,82.543983 
	C177.265305,86.911880 171.229019,91.700470 165.686905,91.966858 
	C156.297470,92.418159 146.898254,92.666206 137.003906,92.999695 
z"/>
<path fill="#000000" opacity="1.000000" stroke="none" 
	d="
M143.981110,33.000320 
	C152.330933,33.998871 160.249557,34.654984 168.012466,36.130409 
	C172.344849,36.953823 174.021683,40.966827 173.898453,45.055035 
	C173.771301,49.272999 172.876953,53.658123 167.897949,54.962070 
	C163.104370,56.217457 158.216461,57.653137 153.320496,57.864899 
	C143.065704,58.308434 132.778366,57.999382 122.252869,57.999382 
	C122.252869,49.661469 122.252869,41.605011 122.252869,33.000320 
	C129.319016,33.000320 136.401932,33.000320 143.981110,33.000320 
z"/>
<path fill="#000000" opacity="1.000000" stroke="none" 
	d="
M31.998898,51.972137 
	C31.998898,45.505257 31.998898,39.532967 31.998898,32.572685 
	C41.592552,33.049850 50.927437,33.475830 60.257137,33.994984 
	C64.659294,34.239944 69.180336,34.119049 73.420792,35.122223 
	C81.674339,37.074783 83.770164,39.915546 83.832985,47.287239 
	C83.908607,56.161552 80.201904,59.234306 73.383179,59.893414 
	C59.826832,61.203785 46.208660,61.874516 31.998898,62.851990 
	C31.998898,58.678318 31.998898,55.572521 31.998898,51.972137 
z"/>
<path fill="#000000" opacity="1.000000" stroke="none" 
	d="
M901.172607,81.668205 
	C892.910767,70.649979 894.047058,58.752483 897.721619,47.163494 
	C898.876160,43.522087 903.237793,40.293293 906.883728,38.163059 
	C916.550354,32.515049 927.136108,29.979698 938.374207,32.035591 
	C944.491089,33.154613 950.769226,34.127636 956.523926,36.339237 
	C968.678284,41.010330 973.224243,56.250496 971.419556,68.498062 
	C969.071289,84.433907 953.804016,92.087395 940.467896,93.152855 
	C929.412842,94.036079 918.890015,93.298073 909.081299,87.931160 
	C906.275085,86.395706 903.958313,83.965622 901.172607,81.668205 
z"/>
<path fill="#000000" opacity="1.000000" stroke="none" 
	d="
M865.835144,41.528297 
	C869.262390,55.338993 865.315613,63.384113 851.955322,63.891212 
	C838.804016,64.390373 825.618835,64.000114 812.219482,64.000114 
	C812.219482,54.261616 812.219482,43.875046 812.219482,33.980091 
	C823.309814,33.980091 834.306213,33.889847 845.299744,34.027161 
	C849.357788,34.077850 853.630493,33.987507 857.394226,35.218456 
	C860.471741,36.224937 862.938416,39.099163 865.835144,41.528297 
z"/>
<path fill="#000000" opacity="1.000000" stroke="none" 
	d="
M777.885559,55.957775 
	C777.588135,56.420757 777.290771,56.883739 776.646057,57.753990 
	C775.501038,59.087303 774.703430,60.013348 773.905823,60.939407 
	C773.905823,60.939419 773.986694,60.983948 773.597229,60.990643 
	C771.124207,61.960384 769.040649,62.923431 766.957092,63.886475 
	C752.442078,64.420921 737.927063,64.955383 723.202332,65.497559 
	C723.202332,54.192307 723.202332,43.790520 723.202332,32.139008 
	C737.881958,33.088108 752.379517,33.332855 766.668396,35.186604 
	C776.613464,36.476803 779.016602,40.788834 778.600586,51.689274 
	C778.101624,53.504944 777.993591,54.731361 777.885559,55.957775 
z"/>
<path fill="#FFFFFF" opacity="1.000000" stroke="none" 
	d="
M767.186829,64.177933 
	C769.040649,62.923431 771.124207,61.960384 773.574707,60.950348 
	C773.254700,64.814903 770.910706,65.694389 767.186829,64.177933 
z"/>
<path fill="#FFFFFF" opacity="1.000000" stroke="none" 
	d="
M778.248413,55.935093 
	C777.993591,54.731361 778.101624,53.504944 778.545410,52.120499 
	C779.538879,52.530441 780.196777,53.098408 780.854614,53.666382 
	C780.106873,54.415054 779.359070,55.163731 778.248413,55.935093 
z"/>
<path fill="#FFFFFF" opacity="1.000000" stroke="none" 
	d="
M774.266846,60.953114 
	C774.703430,60.013348 775.501038,59.087303 776.591675,58.059891 
	C778.936584,61.064995 776.114929,60.515347 774.266846,60.953114 
z"/>
</svg>