<?xml version="1.0" standalone="no"?>
<!DOCTYPE svg PUBLIC "-//W3C//DTD SVG 20010904//EN"
 "http://www.w3.org/TR/2001/REC-SVG-20010904/DTD/svg10.dtd">
<svg version="1.0" xmlns="http://www.w3.org/2000/svg"
 width="1153.000000pt" height="127.000000pt" viewBox="0 0 1153.000000 127.000000"
 preserveAspectRatio="xMidYMid meet">

<g transform="translate(0.000000,127.000000) scale(0.100000,-0.100000)"
fill="#000000" stroke="none">
<path d="M5465 1024 c-125 -31 -175 -63 -200 -127 -33 -88 15 -163 135 -208
30 -12 116 -36 190 -56 217 -56 270 -87 270 -160 0 -47 -14 -70 -60 -93 -117
-60 -356 -49 -523 25 -16 7 -18 3 -15 -36 l3 -44 70 -18 c104 -28 312 -34 407
-13 131 29 198 91 198 181 0 105 -73 152 -352 225 -208 55 -258 85 -258 153 0
37 45 82 96 96 113 30 290 21 399 -20 27 -10 51 -19 53 -19 2 0 2 19 0 42 l-3
42 -60 13 c-62 14 -314 26 -350 17z"/>
<path d="M9185 1020 c-216 -45 -337 -194 -322 -395 16 -210 161 -329 418 -342
239 -13 406 63 477 215 24 50 27 70 27 157 0 87 -3 107 -27 157 -48 104 -160
183 -292 207 -68 13 -222 13 -281 1z m268 -65 c177 -37 257 -131 257 -300 0
-169 -80 -263 -257 -300 -126 -27 -258 -14 -360 36 -107 51 -153 132 -153 264
0 132 46 212 153 264 100 49 235 63 360 36z"/>
<path d="M10298 1019 c-51 -12 -144 -60 -201 -103 l-47 -36 0 65 0 65 -40 0
-40 0 0 -360 0 -360 40 0 40 0 0 254 0 254 55 50 c103 91 246 138 355 116 28
-6 52 -8 55 -6 12 12 4 60 -11 66 -23 9 -163 5 -206 -5z"/>
<path d="M230 651 l0 -361 35 0 35 0 0 155 0 155 175 0 175 0 116 -155 116
-155 44 0 c24 0 44 1 44 3 0 2 -54 73 -120 157 l-119 154 47 18 c131 49 172
208 81 312 -54 62 -93 69 -376 74 l-253 4 0 -361z m512 280 c57 -18 88 -61 88
-126 0 -64 -31 -108 -88 -126 -20 -6 -128 -13 -239 -16 l-203 -6 0 148 0 148
203 -6 c111 -3 219 -10 239 -16z"/>
<path d="M1130 650 l0 -360 255 0 c268 0 333 7 387 43 55 38 78 82 78 151 0
102 -40 156 -137 182 -26 7 -39 13 -28 13 34 2 86 40 101 76 28 68 15 147 -34
198 -47 49 -99 57 -374 57 l-248 0 0 -360z m532 282 c48 -20 68 -51 68 -105 0
-40 -5 -54 -28 -77 -40 -40 -105 -50 -317 -50 l-185 0 0 126 0 126 218 -4
c128 -3 228 -9 244 -16z m32 -317 c57 -28 80 -65 80 -124 0 -60 -23 -97 -72
-119 -30 -13 -82 -17 -269 -20 l-233 -4 0 147 0 147 228 -4 c202 -3 231 -6
266 -23z"/>
<path d="M1959 988 c5 -13 68 -169 141 -348 73 -179 135 -331 137 -337 3 -8
25 -13 58 -13 l52 0 124 320 c88 226 126 314 132 302 4 -9 61 -152 125 -317
l118 -300 54 0 54 0 138 340 c76 187 141 348 144 358 4 14 -1 17 -33 17 l-39
0 -129 -320 c-70 -177 -131 -323 -134 -325 -3 -2 -62 143 -131 321 l-125 325
-49 -3 -49 -3 -79 -205 c-145 -376 -171 -441 -175 -437 -2 3 -62 148 -133 323
l-129 319 -40 3 c-39 3 -41 2 -32 -20z"/>
<path d="M3810 650 l0 -360 35 0 35 0 0 360 0 360 -35 0 -35 0 0 -360z"/>
<path d="M4010 980 l0 -30 165 0 165 0 0 -330 0 -330 40 0 40 0 0 330 0 330
165 0 165 0 0 30 0 30 -370 0 -370 0 0 -30z"/>
<path d="M6130 773 c0 -131 5 -265 10 -298 13 -79 50 -132 119 -169 45 -24 69
-30 145 -34 115 -6 189 12 316 76 52 26 98 49 103 50 4 2 7 -21 7 -52 l0 -56
40 0 40 0 0 360 0 360 -40 0 -40 0 0 -264 0 -264 -52 -35 c-123 -80 -221 -112
-348 -111 -120 0 -167 21 -199 87 -20 41 -21 59 -21 315 l0 272 -40 0 -40 0 0
-237z"/>
<path d="M7140 650 l0 -360 40 0 40 0 0 140 0 140 208 0 c223 0 286 10 347 52
108 73 108 271 0 338 -69 43 -124 50 -387 50 l-248 0 0 -360z m562 273 c57
-26 78 -62 78 -135 0 -66 -24 -108 -76 -134 -34 -16 -68 -19 -261 -22 l-223
-4 0 162 0 162 218 -4 c193 -4 222 -6 264 -25z"/>
<path d="M8030 651 l0 -361 35 0 35 0 0 139 0 139 233 4 c217 3 235 5 282 26
63 29 84 48 106 97 35 76 17 199 -37 247 -11 10 -42 28 -69 40 -47 22 -64 23
-317 26 l-268 3 0 -360z m542 280 c101 -32 130 -186 48 -254 -44 -37 -111 -47
-325 -47 l-195 0 0 161 0 161 218 -5 c121 -2 233 -10 254 -16z"/>
<path d="M10530 980 l0 -30 165 0 165 0 0 -330 0 -330 35 0 35 0 0 330 0 330
165 0 165 0 0 30 0 30 -365 0 -365 0 0 -30z"/>
</g>
</svg>
